<svg xmlns="http://www.w3.org/2000/svg" viewBox="0 0 56.2 56.2">
    <path
        d=" M 55.613 10.892 C 55.018 10.6 54.761 11.156 54.413 11.438 C 54.294 11.529 54.193 11.648 54.092 11.757 C 53.222 12.686 52.206 13.297 50.878 13.224 C 48.936 13.114 47.278 13.725 45.813 15.21 C 45.501 13.379 44.466 12.285 42.891 11.584 C 42.067 11.219 41.233 10.855 40.656 10.062 C 40.253 9.497 40.143 8.869 39.942 8.249 C 39.813 7.876 39.685 7.493 39.255 7.429 C 38.788 7.356 38.604 7.748 38.421 8.076 C 37.689 9.415 37.405 10.891 37.432 12.386 C 37.496 15.748 38.916 18.426 41.737 20.331 C 42.057 20.549 42.14 20.768 42.039 21.087 C 41.847 21.743 41.618 22.381 41.416 23.037 C 41.288 23.456 41.096 23.547 40.647 23.364 C 39.099 22.718 37.762 21.761 36.58 20.604 C 34.574 18.663 32.761 16.522 30.499 14.846 C 29.967 14.454 29.436 14.09 28.887 13.743 C 26.578 11.502 29.189 9.661 29.793 9.443 C 30.425 9.215 30.013 8.431 27.971 8.441 C 25.928 8.45 24.06 9.133 21.678 10.044 C 21.33 10.181 20.964 10.281 20.588 10.363 C 18.427 9.953 16.183 9.862 13.838 10.126 C 9.424 10.618 5.897 12.705 3.305 16.267 C 0.191 20.549 -0.541 25.414 0.356 30.489 C 1.3 35.838 4.029 40.266 8.224 43.728 C 12.575 47.318 17.585 49.076 23.3 48.739 C 26.771 48.539 30.636 48.074 34.996 44.384 C 36.095 44.931 37.249 45.149 39.163 45.313 C 40.638 45.45 42.058 45.24 43.157 45.013 C 44.878 44.648 44.759 43.054 44.137 42.762 C 39.09 40.412 40.198 41.368 39.191 40.594 C 41.755 37.56 45.62 34.407 47.132 24.194 C 47.251 23.383 47.15 22.872 47.132 22.216 C 47.122 21.816 47.214 21.661 47.672 21.615 C 48.936 21.469 50.163 21.123 51.29 20.504 C 54.56 18.718 55.878 15.784 56.19 12.267 C 56.236 11.73 56.181 11.174 55.613 10.892 Z  M 27.119 42.543 C 22.228 38.699 19.856 37.432 18.876 37.487 C 17.96 37.541 18.125 38.589 18.326 39.273 C 18.537 39.947 18.812 40.412 19.196 41.004 C 19.462 41.395 19.645 41.978 18.931 42.416 C 17.356 43.391 14.617 42.088 14.489 42.024 C 11.301 40.147 8.636 37.669 6.758 34.28 C 4.945 31.018 3.892 27.519 3.718 23.784 C 3.672 22.882 3.937 22.563 4.835 22.399 C 6.017 22.18 7.235 22.134 8.416 22.308 C 13.408 23.037 17.658 25.269 21.221 28.804 C 23.254 30.817 24.793 33.223 26.377 35.573 C 28.062 38.07 29.876 40.448 32.184 42.398 C 32.999 43.081 33.649 43.6 34.272 43.983 C 32.395 44.193 29.262 44.238 27.119 42.543 L 27.119 42.543 Z  M 29.464 27.465 C 29.464 27.064 29.784 26.745 30.187 26.745 C 30.279 26.745 30.361 26.763 30.435 26.79 C 30.536 26.827 30.627 26.881 30.7 26.963 C 30.829 27.091 30.902 27.273 30.902 27.464 C 30.902 27.865 30.581 28.184 30.178 28.184 C 29.776 28.184 29.464 27.865 29.464 27.464 L 29.464 27.465 Z  M 36.745 31.2 C 36.278 31.392 35.811 31.555 35.362 31.574 C 34.666 31.61 33.906 31.328 33.494 30.981 C 32.853 30.444 32.395 30.143 32.2 29.205 C 32.12 28.804 32.166 28.184 32.239 27.829 C 32.404 27.064 32.221 26.572 31.68 26.125 C 31.241 25.761 30.682 25.661 30.068 25.661 C 29.839 25.661 29.629 25.56 29.473 25.478 C 29.217 25.351 29.006 25.032 29.207 24.64 C 29.272 24.513 29.583 24.203 29.656 24.148 C 30.49 23.674 31.452 23.829 32.34 24.185 C 33.164 24.522 33.787 25.141 34.685 26.016 C 35.601 27.073 35.765 27.364 36.287 28.157 C 36.7 28.777 37.075 29.414 37.332 30.143 C 37.487 30.599 37.286 30.972 36.745 31.2 L 36.745 31.2 Z "
        fill="rgb(255,255,255)" />
</svg>