<svg xmlns="http://www.w3.org/2000/svg" viewBox="0 0 33.3 33.3">
    <path
        d=" M 12.873 21.191 L 23.955 13.001 C 24.498 12.599 25.275 12.756 25.534 13.379 C 26.896 16.668 26.287 20.621 23.577 23.335 C 20.866 26.049 17.094 26.644 13.647 25.289 L 9.881 27.034 C 15.283 30.731 21.842 29.816 25.94 25.71 C 29.191 22.455 30.198 18.018 29.257 14.017 L 29.265 14.026 C 27.9 8.148 29.601 5.799 33.085 0.995 C 33.168 0.881 33.25 0.767 33.3 0.65 L 28.748 5.241 L 28.748 5.226 L 12.871 21.194"
        fill="rgb(255,255,255)" />
    <path
        d=" M 10.587 23.181 C 6.71 19.473 7.378 13.735 10.686 10.426 C 13.132 7.977 17.14 6.978 20.638 8.447 L 24.396 6.71 C 23.719 6.22 22.851 5.693 21.856 5.323 C 17.356 3.469 11.969 4.392 8.311 8.051 C 4.793 11.574 3.686 16.99 5.586 21.612 C 7.006 25.066 4.679 27.51 2.335 29.976 C 1.505 30.85 0.671 31.725 0 32.65 L 10.584 23.184"
        fill="rgb(255,255,255)" />
</svg>